{
	"asset":{
		"version":"2.0",
		"generator":"Created using the official Cinema 4D glTF Exporter 1.000x287587"
	},
	"scenes":[{
		"nodes":[0,
		3]
	}],
	"nodes":[{
		"name":"Extrude.1",
		"mesh":0,
		"children":[1,
		2]
	},
	{
		"name":"Cap 1",
		"translation":[4.937891006469727,
		7.404099941253662,
		0.04388413578271866],
		"rotation":[0.0,
		0.0,
		0.0,
		-1.0],
		"scale":[1.0,
		1.0,
		1.0],
		"mesh":1
	},
	{
		"name":"Cap 2",
		"translation":[4.937891006469727,
		7.404099941253662,
		0.04388413578271866],
		"rotation":[0.0,
		0.0,
		0.0,
		-1.0],
		"scale":[1.0,
		1.0,
		1.0],
		"mesh":2
	},
	{
		"name":"Extrude",
		"mesh":3,
		"children":[4,
		5]
	},
	{
		"name":"Cap 1",
		"translation":[7.569200038909912,
		7.356738090515137,
		0.0],
		"rotation":[0.0,
		0.0,
		0.0,
		-1.0],
		"scale":[1.0,
		1.0,
		1.0],
		"mesh":4
	},
	{
		"name":"Cap 2",
		"translation":[7.569200038909912,
		7.356738090515137,
		0.0],
		"rotation":[0.0,
		0.0,
		0.0,
		-1.0],
		"scale":[1.0,
		1.0,
		1.0],
		"mesh":5
	}],
	"meshes":[{
		"primitives":[{
			"attributes":{
				"POSITION":1,
				"NORMAL":2,
				"TEXCOORD_0":3
			},
			"indices":0,
			"material":0
		}]
	},
	{
		"primitives":[{
			"attributes":{
				"POSITION":5,
				"NORMAL":6,
				"TEXCOORD_0":7
			},
			"indices":4,
			"material":0
		}]
	},
	{
		"primitives":[{
			"attributes":{
				"POSITION":9,
				"NORMAL":10,
				"TEXCOORD_0":11
			},
			"indices":8,
			"material":0
		}]
	},
	{
		"primitives":[{
			"attributes":{
				"POSITION":13,
				"NORMAL":14,
				"TEXCOORD_0":15
			},
			"indices":12,
			"material":1
		}]
	},
	{
		"primitives":[{
			"attributes":{
				"POSITION":17,
				"NORMAL":18,
				"TEXCOORD_0":19
			},
			"indices":16,
			"material":1
		}]
	},
	{
		"primitives":[{
			"attributes":{
				"POSITION":21,
				"NORMAL":22,
				"TEXCOORD_0":23
			},
			"indices":20,
			"material":1
		}]
	}],
	"accessors":[{
		"bufferView":0,
		"type":"SCALAR",
		"max":[669],
		"componentType":5123,
		"count":1914,
		"byteOffset":0,
		"min":[0]
	},
	{
		"bufferView":1,
		"type":"VEC3",
		"max":[9.169740676879883,
		11.184466361999512,
		0.04388413578271866],
		"componentType":5126,
		"count":670,
		"byteOffset":0,
		"min":[0.6219373345375061,
		3.610917806625366,
		-5.056115627288818]
	},
	{
		"bufferView":1,
		"type":"VEC3",
		"max":[0.9999861121177673,
		1.0,
		0.0],
		"componentType":5126,
		"count":670,
		"byteOffset":12,
		"min":[-0.9999999403953552,
		-1.0,
		0.0]
	},
	{
		"bufferView":1,
		"type":"VEC2",
		"max":[1.0,
		1.0],
		"componentType":5126,
		"count":670,
		"byteOffset":24,
		"min":[0.0,
		0.0]
	},
	{
		"bufferView":2,
		"type":"SCALAR",
		"max":[318],
		"componentType":5123,
		"count":957,
		"byteOffset":0,
		"min":[0]
	},
	{
		"bufferView":3,
		"type":"VEC3",
		"max":[4.231849670410156,
		3.7803666591644289,
		0.0],
		"componentType":5126,
		"count":319,
		"byteOffset":0,
		"min":[-4.315953731536865,
		-3.793182134628296,
		0.0]
	},
	{
		"bufferView":3,
		"type":"VEC3",
		"max":[0.0,
		0.0,
		1.0],
		"componentType":5126,
		"count":319,
		"byteOffset":12,
		"min":[0.0,
		0.0,
		1.0]
	},
	{
		"bufferView":3,
		"type":"VEC2",
		"max":[1.0,
		0.8860228061676025],
		"componentType":5126,
		"count":319,
		"byteOffset":24,
		"min":[0.0,
		0.0]
	},
	{
		"bufferView":4,
		"type":"SCALAR",
		"max":[318],
		"componentType":5123,
		"count":957,
		"byteOffset":0,
		"min":[0]
	},
	{
		"bufferView":5,
		"type":"VEC3",
		"max":[4.231849670410156,
		3.7803666591644289,
		-5.099999904632568],
		"componentType":5126,
		"count":319,
		"byteOffset":0,
		"min":[-4.315953731536865,
		-3.793182134628296,
		-5.099999904632568]
	},
	{
		"bufferView":5,
		"type":"VEC3",
		"max":[0.0,
		0.0,
		-1.0],
		"componentType":5126,
		"count":319,
		"byteOffset":12,
		"min":[0.0,
		0.0,
		-1.0]
	},
	{
		"bufferView":5,
		"type":"VEC2",
		"max":[1.0,
		0.6843434572219849],
		"componentType":5126,
		"count":319,
		"byteOffset":24,
		"min":[0.0,
		0.0]
	},
	{
		"bufferView":6,
		"type":"SCALAR",
		"max":[2739],
		"componentType":5123,
		"count":7752,
		"byteOffset":0,
		"min":[0]
	},
	{
		"bufferView":7,
		"type":"VEC3",
		"max":[14.537266731262207,
		11.180068016052246,
		0.0],
		"componentType":5126,
		"count":2740,
		"byteOffset":0,
		"min":[0.6011333465576172,
		3.6210007667541506,
		-5.0]
	},
	{
		"bufferView":7,
		"type":"VEC3",
		"max":[1.0,
		1.0,
		0.0],
		"componentType":5126,
		"count":2740,
		"byteOffset":12,
		"min":[-1.0,
		-1.0,
		0.0]
	},
	{
		"bufferView":7,
		"type":"VEC2",
		"max":[1.0,
		1.0],
		"componentType":5126,
		"count":2740,
		"byteOffset":24,
		"min":[0.0,
		0.0]
	},
	{
		"bufferView":8,
		"type":"SCALAR",
		"max":[1291],
		"componentType":5123,
		"count":3864,
		"byteOffset":0,
		"min":[0]
	},
	{
		"bufferView":9,
		"type":"VEC3",
		"max":[6.968066692352295,
		3.8233296871185304,
		0.0],
		"componentType":5126,
		"count":1292,
		"byteOffset":0,
		"min":[-6.968066692352295,
		-3.7357373237609865,
		0.0]
	},
	{
		"bufferView":9,
		"type":"VEC3",
		"max":[0.0,
		0.0,
		1.0],
		"componentType":5126,
		"count":1292,
		"byteOffset":12,
		"min":[0.0,
		0.0,
		1.0]
	},
	{
		"bufferView":9,
		"type":"VEC2",
		"max":[1.0,
		0.542407751083374],
		"componentType":5126,
		"count":1292,
		"byteOffset":24,
		"min":[0.0,
		0.0]
	},
	{
		"bufferView":10,
		"type":"SCALAR",
		"max":[1291],
		"componentType":5123,
		"count":3864,
		"byteOffset":0,
		"min":[0]
	},
	{
		"bufferView":11,
		"type":"VEC3",
		"max":[6.968066692352295,
		3.8233296871185304,
		-5.0],
		"componentType":5126,
		"count":1292,
		"byteOffset":0,
		"min":[-6.968066692352295,
		-3.7357373237609865,
		-5.0]
	},
	{
		"bufferView":11,
		"type":"VEC3",
		"max":[0.0,
		0.0,
		-1.0],
		"componentType":5126,
		"count":1292,
		"byteOffset":12,
		"min":[0.0,
		0.0,
		-1.0]
	},
	{
		"bufferView":11,
		"type":"VEC2",
		"max":[1.0,
		0.542407751083374],
		"componentType":5126,
		"count":1292,
		"byteOffset":24,
		"min":[0.0,
		0.0]
	}],
	"bufferViews":[{
		"buffer":0,
		"byteOffset":0,
		"byteLength":3828,
		"target":34963
	},
	{
		"buffer":0,
		"byteOffset":3828,
		"byteLength":21440,
		"target":34962,
		"byteStride":32
	},
	{
		"buffer":1,
		"byteOffset":0,
		"byteLength":1914,
		"target":34963
	},
	{
		"buffer":1,
		"byteOffset":1916,
		"byteLength":10208,
		"target":34962,
		"byteStride":32
	},
	{
		"buffer":2,
		"byteOffset":0,
		"byteLength":1914,
		"target":34963
	},
	{
		"buffer":2,
		"byteOffset":1916,
		"byteLength":10208,
		"target":34962,
		"byteStride":32
	},
	{
		"buffer":3,
		"byteOffset":0,
		"byteLength":15504,
		"target":34963
	},
	{
		"buffer":3,
		"byteOffset":15504,
		"byteLength":87680,
		"target":34962,
		"byteStride":32
	},
	{
		"buffer":4,
		"byteOffset":0,
		"byteLength":7728,
		"target":34963
	},
	{
		"buffer":4,
		"byteOffset":7728,
		"byteLength":41344,
		"target":34962,
		"byteStride":32
	},
	{
		"buffer":5,
		"byteOffset":0,
		"byteLength":7728,
		"target":34963
	},
	{
		"buffer":5,
		"byteOffset":7728,
		"byteLength":41344,
		"target":34962,
		"byteStride":32
	}],
	"buffers":[{
		"uri":"data:application/octet-stream;base64,",
		"byteLength":25268
	},
	{
		"uri":"data:application/octet-stream;base64,",
		"byteLength":12124
	},
	{
		"uri":"data:application/octet-stream;base64,",
		"byteLength":12124
	},
	{
		"uri":"data:application/octet-stream;base64,",
		"byteLength":103184
	},
	{
		"uri":"data:application/octet-stream;base64,",
		"byteLength":49072
	},
	{
		"uri":"data:application/octet-stream;base64,",
		"byteLength":49072
	}],
	"materials":[{
		"pbrMetallicRoughness":{
			"baseColorFactor":[0.9686274509803922,
			0.49803921568627459,
			0.0,
			1.0],
			"metallicFactor":0.0,
			"roughnessFactor":0.5
		},
		"emissiveFactor":[0.7361568627450981,
		0.3785098039215687,
		0.0],
		"alphaMode":"OPAQUE",
		"doubleSided":false,
		"name":"PBR.1"
	},
	{
		"pbrMetallicRoughness":{
			"baseColorFactor":[0.30980392156862748,
			0.30980392156862748,
			0.30980392156862748,
			1.0],
			"metallicFactor":0.0,
			"roughnessFactor":0.5
		},
		"emissiveFactor":[0.23545098039215688,
		0.23545098039215688,
		0.23545098039215688],
		"alphaMode":"OPAQUE",
		"doubleSided":false,
		"name":"PBR"
	}]
}
